<?xml version="1.0" encoding="utf-8"?><!-- Uploaded to: SVG Repo, www.svgrepo.com, Generator: SVG Repo Mixer Tools -->
<svg width="800px" height="800px" viewBox="0 0 24 24" fill="none" xmlns="http://www.w3.org/2000/svg">
<path d="M20.5 6.5L18.5 4.5M9.5 2.5H13.5M7.2 12.2143L9.2 10.5V16.5M19.5 13.5C19.5 17.9183 15.9183 21.5 11.5 21.5C7.08172 21.5 3.5 17.9183 3.5 13.5C3.5 9.08172 7.08172 5.5 11.5 5.5C15.9183 5.5 19.5 9.08172 19.5 13.5ZM13.7 16.5C12.8716 16.5 12.2 15.8284 12.2 15V12C12.2 11.1716 12.8716 10.5 13.7 10.5C14.5284 10.5 15.2 11.1716 15.2 12V15C15.2 15.8284 14.5284 16.5 13.7 16.5Z" stroke="#000000" stroke-width="2" stroke-linecap="round" stroke-linejoin="round"/>
</svg>